<?xml version="1.0" encoding="utf-8"?>
<!-- Generator: Adobe Illustrator 16.0.0, SVG Export Plug-In . SVG Version: 6.00 Build 0)  -->
<!DOCTYPE svg PUBLIC "-//W3C//DTD SVG 1.1//EN" "http://www.w3.org/Graphics/SVG/1.1/DTD/svg11.dtd">
<svg version="1.1" id="图层_1" xmlns="http://www.w3.org/2000/svg" xmlns:xlink="http://www.w3.org/1999/xlink" x="0px" y="0px"
	 width="605px" height="74.338px" viewBox="3.5 359.162 605 74.338" enable-background="new 3.5 359.162 605 74.338"
	 xml:space="preserve">
<g>
	<g>
		<path fill="#050000" d="M72.775,363.215h-5.033h-2.617h-1.812v1.61c1.409,0,2.818,0.201,3.825,1.208
			c0.201,0.201,0.403,0.604,0.403,1.208v0.201c0,0.402,0,0.604-0.202,1.006c-0.201,0.403-0.402,0.806-0.604,1.409l-18.723,34.627
			l-17.716-34.828c0-0.201-0.201-0.402-0.402-0.805c-0.403-0.604-0.403-1.208-0.403-1.61c0-0.202,0-0.202,0-0.403
			c0-0.402,0.201-0.805,0.403-1.006c1.006-1.007,2.416-1.208,3.825-1.208v-1.409h-0.402h-4.026h-6.644H9.965H5.536v1.61
			c1.409,0,2.818,0.201,3.825,1.208c0.402,0.402,0.604,1.409,0.604,2.617l0,0v55.361l0,0l0,0c0,1.208-0.201,2.014-0.604,2.617
			c-1.007,1.007-2.416,1.208-3.825,1.208v1.61h4.429l0,0h12.683l0,0h4.429v-1.61c-1.409,0-2.818-0.201-3.825-1.208
			c-0.403-0.402-0.604-1.409-0.604-2.617l0,0v-42.276l24.359,46.907l25.567-46.907v42.276l0,0c0,1.208-0.201,2.014-0.604,2.617
			c-1.006,1.007-2.416,1.208-3.825,1.208v1.61h4.429l0,0h13.689l0,0h4.429v-1.61c-1.409,0-2.819-0.201-3.825-1.208
			c-0.403-0.402-0.604-1.409-0.604-2.617l0,0v-55.563l0,0c0-1.207,0.201-2.013,0.604-2.616c1.006-1.007,2.416-1.208,3.825-1.208
			v-1.409h-4.429H72.775z"/>
		<path fill="#050000" d="M167.797,421.193L167.797,421.193l-25.567-51.336c0-0.201-0.402-0.805-0.805-1.812l0,0
			c0-0.201-0.201-0.402-0.201-0.604c0-0.806,0.402-1.409,0.805-1.813c0.604-0.604,1.812-0.805,2.818-0.805v-1.61h-4.026h-2.013
			h-10.67h-6.039v1.61c1.208,0,2.214,0.201,2.818,0.805c0.604,0.604,0.805,1.208,0.805,1.813c0,0.201,0,0.402-0.201,0.604
			c0,0.201,0,0.201-0.202,0.402l-0.402,0.806l0,0l-24.158,51.939c0,0,0,0.201-0.201,0.201c-1.006,2.014-2.013,3.624-2.818,4.43
			c-0.805,0.805-2.416,1.812-4.228,1.812v1.61h1.208h2.013h12.884h5.838v-1.61c-1.007,0-2.214-0.201-2.818-0.402
			c-0.403-0.403-0.805-0.806-0.805-1.409c0-0.202,0-0.604,0.201-1.007c0-0.402,0.201-0.806,0.402-1.409l0.403-1.007l4.832-10.267
			h30.197l4.832,10.065c0.202,0.402,0.403,0.806,0.604,1.409l-0.805-1.208l0.403,1.007c0.201,0.604,0.402,1.007,0.402,1.409
			s0.202,0.604,0.202,1.007c0,0.805-0.403,1.208-0.806,1.409c-0.604,0.402-1.812,0.402-2.818,0.402v1.61h1.208h4.63h15.904h3.02
			v-1.61c-1.812,0-3.02-1.007-3.825-1.812C169.81,425.019,168.803,423.408,167.797,421.193z M121.896,403.276l11.073-23.151
			l10.669,23.151H121.896z"/>
		<path fill="#050000" d="M244.297,421.193c-4.026-5.234-8.657-11.072-12.28-15.904l-8.657-11.273l5.637-7.046
			c5.838-7.247,12.884-16.307,13.085-16.307c3.825-4.63,7.449-5.838,9.663-5.838v-1.61h-20.131h-5.838v1.61l0,0
			c1.007,0,2.215,0.201,2.818,0.402c0.403,0.402,0.806,0.806,0.806,1.409c0,0.402,0,1.007-0.806,2.215
			c-4.63,5.838-9.864,12.683-12.683,15.903c-2.818-3.623-8.053-10.468-11.475-14.897c-0.402-0.402-1.409-2.013-1.409-3.02
			c0-1.812,2.416-2.214,3.624-2.214v-1.409h-28.586v1.61c4.026,0,6.442,2.214,9.663,6.441c4.026,5.234,8.656,11.073,12.28,15.904
			l0,0l7.046,9.06l-7.248,9.261c-5.838,7.247-12.884,16.307-13.085,16.307c-3.624,4.63-7.449,5.838-9.462,5.838v1.61h19.729h5.838
			v-1.61l0,0c-1.007,0-2.214-0.201-2.818-0.402c-0.403-0.403-0.805-0.806-0.805-1.409c0-0.403,0-1.007,0.805-2.215
			c6.442-8.254,14.293-18.118,14.293-18.118s8.455,11.072,13.287,17.111c0.403,0.403,1.409,2.014,1.409,3.02
			c0,1.813-2.416,2.215-3.624,2.215v1.61h28.788v-1.61C249.934,427.636,247.518,425.22,244.297,421.193z"/>
		<path fill="#050000" d="M326.232,425.421c-1.007-0.805-3.02-3.221-3.825-4.429l-13.287-19.125
			c9.261-1.409,16.508-9.462,16.508-19.326c0-10.871-8.857-19.528-19.527-19.528h-10.67l0,0h-33.016l0,0h-4.429v1.611
			c1.409,0,2.818,0.201,3.825,1.208c0.403,0.402,0.604,1.207,0.604,2.415v55.563c0,1.208-0.201,2.014-0.604,2.617
			c-1.006,1.007-2.416,1.208-3.825,1.208v1.61h4.429l0,0h13.689l0,0h4.429v-1.61c-1.41,0-2.819-0.201-3.825-1.208
			c-0.403-0.402-0.604-1.208-0.604-2.617l0,0V403.68v-1.41h18.119l13.89,20.132c0.403,0.604,1.611,2.617,1.611,3.624
			c0,1.208-2.617,1.61-3.624,1.61v1.61h25.769v-1.61C329.051,427.636,327.238,426.428,326.232,425.421z M304.893,390.996h-15.501
			H275.5v-16.508l0,0h13.891h15.501c4.63,0,8.455,3.825,8.455,8.254C313.348,387.372,309.522,390.996,304.893,390.996z"/>
		<path fill="#050000" d="M343.344,363.215h-4.429v1.61c1.409,0,2.818,0.201,3.825,1.208c0.402,0.402,0.604,1.409,0.604,2.617
			v55.361c0,1.208-0.201,2.014-0.604,2.617c-1.007,1.007-2.416,1.208-3.825,1.208v1.61h4.429h14.696h4.429v-1.61
			c-1.409,0-2.818-0.201-3.825-1.208c-0.402-0.402-0.604-1.409-0.604-2.617v-55.563c0-1.207,0.201-2.013,0.604-2.616
			c1.007-1.007,2.416-1.208,3.825-1.208v-1.409h-4.429H343.344z"/>
		<path fill="#050000" d="M438.566,414.147c0,1.208-0.604,2.214-1.208,2.617c-0.402,0.403-1.409,0.604-2.617,0.604l0,0h-6.24
			h-36.237v-17.112h25.366h1.207l0,0c1.208,0,2.014,0.201,2.617,0.604c0.604,0.402,1.208,1.408,1.208,2.617h1.611v-3.222v-10.67
			v-3.423h-1.611c0,1.208-0.604,2.215-1.208,2.617c-0.402,0.403-1.409,0.604-2.617,0.604l0,0h-13.689h-12.884v-14.294h37.848h4.026
			l0,0c1.208,0,2.013,0.201,2.617,0.604c0.604,0.402,1.208,1.409,1.208,2.617h1.61v-3.222v-11.877l0,0v-3.222h-1.61
			c0,1.208-0.604,2.215-1.208,2.617c-0.403,0.402-1.208,0.604-2.416,0.604h-0.201h-2.014h-54.355l0,0h-4.429v1.61
			c1.409,0,2.818,0.201,3.825,1.208c0.402,0.402,0.604,1.409,0.604,2.617v55.361c0,1.208-0.201,2.014-0.604,2.617
			c-1.007,1.007-2.416,1.208-3.825,1.208v1.61h4.429l0,0h52.745h4.429l0,0c1.208,0,2.014,0.201,2.617,0.604
			c0.604,0.402,1.208,1.409,1.208,2.617h1.61v-3.222V417.57v-3.222h-1.812V414.147z"/>
		<path fill="#050000" d="M522.112,363.215h-14.696l0,0h-4.429v1.61c1.409,0,2.818,0.201,3.825,1.208
			c0.402,0.402,0.604,1.409,0.604,2.617v13.487v24.159l-35.834-36.641l0,0c-0.604-0.604-1.007-1.208-1.409-1.61
			c-0.201-0.402-0.402-1.007-0.402-1.409s0.201-0.805,0.604-1.208c0.806-0.805,2.617-0.805,3.222-0.805v-1.409h-19.327l0,0h-1.812
			l0,0h-4.429v1.61c1.409,0,2.818,0.201,3.825,1.208c0.402,0.402,0.604,1.409,0.604,2.617v55.361c0,1.208-0.201,2.014-0.604,2.617
			c-1.007,1.007-2.416,1.208-3.825,1.208v1.61h4.429l0,0h14.495l0,0h4.429v-1.61c-1.409,0-2.818-0.201-3.825-1.208
			c-0.402-0.402-0.604-1.409-0.604-2.617l0,0v-23.755v-15.703l37.847,38.25c0.604,0.604,1.007,1.208,1.409,1.611
			c0.202,0.402,0.403,1.006,0.403,1.409c0,0.402-0.201,0.805-0.604,1.208c-0.805,0.805-2.617,0.805-3.221,0.805v1.61h19.326l0,0
			h4.429v-1.61c-1.409,0-2.818-0.201-3.824-1.208c-0.403-0.402-0.604-1.409-0.604-2.617v-55.563c0-1.207,0.201-2.013,0.604-2.616
			c1.006-1.007,2.415-1.208,3.824-1.208v-1.409H522.112L522.112,363.215z"/>
		<path fill="#050000" d="M581.501,363.215v1.61c1.207,0,3.623,0.402,3.623,2.214c0,1.007-1.007,2.617-1.208,3.222
			c-10.065,14.696-14.897,19.93-14.897,19.93s-3.623-5.233-13.689-19.93c-0.402-0.403-1.207-2.014-1.207-3.222
			c0-1.812,2.415-2.214,3.623-2.214v-1.61h-28.788v1.61c4.026,0,7.247,2.214,10.268,6.441c3.824,5.436,17.917,25.366,21.339,30.198
			l0,0v22.346c0,1.208-0.201,2.014-0.604,2.617c-1.007,1.007-2.416,1.208-3.825,1.208v1.61h4.429l0,0h14.495l0,0h4.429v-1.61
			c-1.409,0-2.818-0.201-3.825-1.208c-0.402-0.402-0.604-1.409-0.604-2.617v-22.346c3.423-4.631,17.112-24.561,21.138-30.198
			c3.021-4.228,6.241-6.441,10.268-6.441v-1.61H581.501z"/>
	</g>
</g>
</svg>
